<svg width="183" height="72" viewBox="0 0 183 72" fill="none" xmlns="http://www.w3.org/2000/svg">
<path d="M59.6426 20.205C59.6594 20.2049 59.6763 20.2048 59.6936 20.2047C59.7291 20.2045 59.7646 20.2044 59.8001 20.2043C59.8531 20.2041 59.906 20.2036 59.959 20.203C60.2608 20.2012 60.5588 20.2286 60.8488 20.317C60.865 20.3218 60.8813 20.3267 60.8981 20.3317C61.756 20.5942 62.3757 21.2132 62.7906 21.9933C63.566 23.4743 63.6208 25.2668 62.9808 30.064C62.9929 30.0677 63.0049 30.0713 63.0174 30.0751C63.9067 30.3446 64.7846 30.6441 65.6337 31.0232C65.6535 31.032 65.6733 31.0409 65.6937 31.0499C66.1934 31.2738 66.6861 31.5158 67.1577 31.7943C67.1754 31.8047 67.1931 31.8151 67.2114 31.8259C67.6793 32.1023 68.1403 32.4055 68.5514 32.7624C68.6057 32.8092 68.6611 32.8543 68.717 32.8993C68.7868 32.956 68.8512 33.0146 68.9136 33.0792C68.9479 33.1135 68.9837 33.1451 69.0204 33.1767C69.1287 33.2703 69.2271 33.371 69.3204 33.4796C69.3496 33.5136 69.3792 33.5473 69.409 33.5808C70.0256 34.2794 70.4722 35.1616 70.4275 36.112C70.3759 36.9304 70.0016 37.6551 69.4908 38.2829C69.4818 38.2941 69.4729 38.3052 69.4637 38.3167C69.3255 38.4868 69.1725 38.6425 69.0181 38.7978C69.0086 38.8074 68.9991 38.817 68.9893 38.8269C68.8768 38.9402 68.7614 39.0466 68.6365 39.1462C68.59 39.1838 68.5455 39.2228 68.5013 39.263C68.4177 39.338 68.3298 39.4057 68.2396 39.4725C68.2232 39.4847 68.2068 39.4969 68.1899 39.5094C68.1408 39.5458 68.0914 39.5821 68.042 39.6183C68.0282 39.6284 68.0145 39.6385 68.0002 39.6489C67.5088 40.0067 66.981 40.3148 66.4428 40.5963C66.4315 40.6021 66.4203 40.608 66.4088 40.6141C65.3356 41.1754 64.2024 41.5692 63.056 41.9504C63.0592 41.9636 63.0624 41.9767 63.0657 41.9903C63.3317 43.0898 63.5159 44.2057 63.5828 45.3358C63.5839 45.3536 63.585 45.3715 63.5861 45.3898C63.6749 46.9074 63.5433 48.5205 62.3222 50.7147C62.3136 50.7245 62.305 50.7343 62.2961 50.7443C62.0892 50.9769 61.8688 51.1666 61.6073 51.3354C61.5964 51.3424 61.5855 51.3495 61.5743 51.3568C60.7662 51.8737 59.7112 51.8689 58.805 51.6798C57.4688 51.3858 56.2489 50.7199 55.1348 49.9436C55.1213 49.9342 55.1077 49.9247 55.0937 49.915C54.6712 49.6196 54.2636 49.3011 53.8711 48.9671C53.8074 48.9131 53.743 48.8603 53.6778 48.8081C53.5707 48.7211 53.4706 48.6272 53.37 48.5328C53.326 48.4916 53.2814 48.4513 53.2357 48.412C53.1483 48.3368 53.065 48.2572 52.9809 48.1784C52.8976 48.1005 52.8134 48.0239 52.7265 47.95C52.634 48.0261 52.5495 48.1075 52.4653 48.1926C52.4049 48.2534 52.3429 48.3107 52.2777 48.3663C52.2367 48.4019 52.1968 48.4386 52.1569 48.4756C52.0608 48.5647 51.9626 48.6495 51.8604 48.7317C51.7947 48.7856 51.7309 48.8415 51.667 48.8975C51.5449 49.004 51.4194 49.105 51.2911 49.2039C51.2594 49.2286 51.2279 49.2535 51.1964 49.2785C50.5485 49.794 49.8566 50.2566 49.1328 50.6583C49.1132 50.6692 49.0937 50.6801 49.0735 50.6914C48.023 51.2745 46.8291 51.7572 45.6143 51.7868C45.6015 51.7871 45.5887 51.7875 45.5755 51.7879C44.7174 51.8114 43.862 51.5741 43.2273 50.9775C43.2013 50.9527 43.1754 50.9277 43.1496 50.9028C43.1283 50.8833 43.1283 50.8833 43.1066 50.8634C42.8684 50.6388 42.691 50.3571 42.5287 50.0753C42.5219 50.0638 42.5151 50.0523 42.5082 50.0405C41.8857 48.9791 41.7532 47.631 41.7525 46.4243C41.7525 46.4022 41.7525 46.3801 41.7525 46.3573C41.7537 45.0534 41.9384 43.7656 42.2276 42.4958C42.2338 42.4687 42.2399 42.4416 42.2461 42.4145C42.2769 42.2784 42.3083 42.1425 42.3405 42.0068C42.3255 42.0044 42.3255 42.0044 42.3101 42.0019C42.1511 41.9733 41.999 41.9242 41.8454 41.8752C41.8309 41.8706 41.8165 41.866 41.8015 41.8612C41.6989 41.8286 41.5963 41.7956 41.4938 41.7623C41.4815 41.7583 41.4692 41.7543 41.4565 41.7502C40.2942 41.3716 39.147 40.8638 38.1071 40.2201C38.085 40.2065 38.085 40.2065 38.0624 40.1927C37.6362 39.9307 37.2295 39.6392 36.8465 39.3173C36.8367 39.3091 36.8269 39.3009 36.8168 39.2925C36.5279 39.0503 36.2443 38.7961 35.9998 38.5086C35.9843 38.4908 35.9688 38.4731 35.9529 38.4548C35.2947 37.6948 34.8296 36.7545 34.8995 35.7294C34.9113 35.5879 34.934 35.4498 34.965 35.3113C34.9699 35.2885 34.9749 35.2656 34.9801 35.2421C35.0908 34.7867 35.3133 34.3551 35.5859 33.976C35.5998 33.9566 35.6136 33.9371 35.628 33.9171C35.9116 33.5309 36.248 33.1472 36.6255 32.851C36.674 32.8124 36.7205 32.7723 36.767 32.7314C37.1957 32.3556 37.6892 32.0409 38.1823 31.7567C38.1948 31.7495 38.2073 31.7423 38.2202 31.7348C38.3074 31.6847 38.3953 31.6359 38.4834 31.5874C38.4999 31.5783 38.5164 31.5691 38.5333 31.5597C38.8069 31.4083 39.0833 31.2661 39.3677 31.136C39.3789 31.1309 39.3901 31.1257 39.4017 31.1204C39.8292 30.9244 40.2637 30.7505 40.7041 30.5857C40.753 30.5674 40.8018 30.5487 40.8505 30.5299C41.3436 30.3429 41.8539 30.1952 42.3593 30.0452C42.355 30.0269 42.3506 30.0086 42.3462 29.9898C42.1335 29.092 41.9586 28.192 41.8548 27.2746C41.853 27.2584 41.8511 27.2421 41.8492 27.2254C41.7896 26.702 41.7687 26.1789 41.7701 25.6526C41.7702 25.6093 41.7702 25.5661 41.7703 25.5228C41.771 25.1095 41.7778 24.7005 41.8325 24.2901C41.8357 24.2648 41.8388 24.2394 41.842 24.2141C41.9967 22.982 42.3994 21.6378 43.42 20.8436C44.1991 20.2575 45.1652 20.1498 46.1084 20.2738C47.2467 20.4405 48.3463 20.9185 49.3252 21.5126C49.3775 21.5442 49.4301 21.5754 49.4827 21.6065C50.0377 21.9363 50.5599 22.3164 51.0707 22.7102C51.0837 22.7202 51.0966 22.7301 51.1099 22.7404C51.2498 22.8484 51.3862 22.9599 51.5205 23.0746C51.5749 23.121 51.6302 23.1661 51.6858 23.211C51.7695 23.2791 51.8501 23.3501 51.93 23.4227C51.9693 23.4584 52.0091 23.4935 52.0491 23.5284C52.1816 23.6438 52.3115 23.7621 52.4407 23.881C52.4509 23.8903 52.461 23.8996 52.4715 23.9092C52.5328 23.9659 52.5925 24.0238 52.6512 24.0832C52.7538 24.0556 52.8119 23.9846 52.8829 23.9104C52.9082 23.8845 52.9336 23.8587 52.959 23.8328C52.9709 23.8206 52.9829 23.8084 52.9953 23.7958C53.0412 23.7498 53.0894 23.7074 53.139 23.6655C53.182 23.6284 53.2235 23.5898 53.265 23.551C53.3668 23.456 53.4707 23.3655 53.5794 23.2783C53.6312 23.2356 53.6804 23.1908 53.7296 23.1452C53.8168 23.0649 53.9076 22.9914 54.0012 22.919C54.0709 22.865 54.1388 22.8097 54.2058 22.7526C54.3507 22.631 54.5029 22.5193 54.6548 22.4069C54.6974 22.3752 54.7397 22.3431 54.782 22.311C55.234 21.9687 55.715 21.6558 56.2073 21.3749C56.2393 21.3566 56.2393 21.3566 56.272 21.3379C57.2716 20.7685 58.4663 20.211 59.6426 20.205ZM56.7717 22.8231C56.7429 22.8407 56.7429 22.8407 56.7134 22.8587C56.4773 23.0032 56.2447 23.1516 56.0191 23.3121C56.0062 23.3212 55.9933 23.3304 55.98 23.3398C55.5823 23.6218 55.1968 23.9197 54.8258 24.236C54.7642 24.2885 54.7017 24.3395 54.6386 24.39C54.5394 24.4706 54.4463 24.557 54.3536 24.6449C54.2833 24.7114 54.2116 24.7758 54.1386 24.8393C54.0721 24.8976 54.0072 24.9575 53.9424 25.0177C53.9291 25.0299 53.9157 25.0422 53.9019 25.0548C53.8891 25.0667 53.8764 25.0785 53.8632 25.0908C53.8517 25.1014 53.8403 25.112 53.8285 25.1229C53.7976 25.1567 53.7797 25.1887 53.7613 25.2305C53.7794 25.2482 53.7794 25.2482 53.7978 25.2663C53.884 25.3515 53.9679 25.4372 54.0466 25.5292C54.0878 25.5766 54.1303 25.6227 54.1729 25.6689C54.2505 25.7539 54.3235 25.8415 54.3957 25.931C54.4399 25.9843 54.4859 26.0353 54.5327 26.0862C54.609 26.1692 54.6811 26.2546 54.7519 26.3422C54.8008 26.4022 54.8507 26.4611 54.9008 26.52C54.9871 26.6215 55.0709 26.7247 55.1536 26.8291C55.1804 26.8625 55.2072 26.8959 55.234 26.9293C55.6302 27.4233 56.0144 27.9271 56.3836 28.4416C56.4376 28.5166 56.4918 28.5915 56.546 28.6664C56.5656 28.6935 56.5852 28.7206 56.6048 28.7477C56.613 28.759 56.6212 28.7704 56.6296 28.7821C56.6589 28.8227 56.6589 28.8227 56.6761 28.8556C56.7083 28.9112 56.7325 28.9471 56.7944 28.9692C56.8475 28.9781 56.8998 28.9829 56.9536 28.9866C56.9738 28.9885 56.994 28.9904 57.0149 28.9924C57.0588 28.9965 57.1028 29.0003 57.1468 29.0039C57.2664 29.0137 57.3858 29.0257 57.5052 29.0373C57.5303 29.0397 57.5554 29.0421 57.5804 29.0445C57.8444 29.0698 58.1072 29.1039 58.3699 29.1401C58.3931 29.1433 58.4163 29.1465 58.4401 29.1497C59.097 29.2405 59.7496 29.3487 60.4007 29.4739C60.4227 29.4781 60.4446 29.4823 60.4672 29.4867C60.7318 29.5377 60.9953 29.5923 61.2578 29.6529C61.2879 29.6597 61.2879 29.6597 61.3186 29.6667C61.3362 29.6708 61.3538 29.6749 61.372 29.6791C61.4234 29.6902 61.4235 29.6902 61.4944 29.6879C61.7343 28.6565 61.9101 27.6226 61.9836 26.5658C61.9856 26.5379 61.9856 26.5379 61.9877 26.5094C62.0835 25.1438 62.0579 23.3322 61.1181 22.2401C60.8451 21.9305 60.5091 21.7797 60.102 21.7323C58.9228 21.6615 57.7551 22.2228 56.7717 22.8231ZM44.3537 22.0708C44.3384 22.0831 44.323 22.0955 44.3071 22.1082C43.987 22.3792 43.8051 22.7584 43.6576 23.1428C43.6524 23.1562 43.6472 23.1696 43.6419 23.1835C43.4381 23.7245 43.3605 24.3182 43.3189 24.8919C43.3178 24.9055 43.3167 24.919 43.3156 24.9329C43.1911 26.5015 43.4568 28.135 43.8457 29.6502C43.94 29.6802 44.0199 29.6568 44.1135 29.6357C44.1494 29.6279 44.1854 29.6202 44.2213 29.6124C44.2404 29.6083 44.2594 29.6041 44.279 29.5998C44.3812 29.5774 44.4836 29.5558 44.586 29.5342C44.6072 29.5298 44.6285 29.5253 44.6503 29.5207C45.5033 29.3424 46.3659 29.2114 47.2301 29.1013C47.2428 29.0997 47.2555 29.0981 47.2687 29.0964C47.5292 29.0632 47.7897 29.031 48.0512 29.006C48.0774 29.0035 48.0774 29.0035 48.1042 29.0009C48.183 28.9934 48.2617 28.9864 48.3406 28.9801C48.3676 28.9777 48.3945 28.9753 48.4215 28.9729C48.4442 28.9711 48.4669 28.9693 48.4903 28.9674C48.5886 28.9457 48.6435 28.8878 48.697 28.8055C48.7064 28.7914 48.7158 28.7772 48.7254 28.7627C48.7353 28.7476 48.7452 28.7325 48.7553 28.7169C48.8402 28.5897 48.9285 28.4667 49.0234 28.3466C49.1 28.2498 49.1749 28.1527 49.2457 28.0516C49.3484 27.9055 49.4587 27.7655 49.569 27.625C49.6026 27.5821 49.636 27.539 49.6693 27.4958C49.7887 27.3411 49.9102 27.1885 50.0351 27.0382C50.1031 26.9563 50.1694 26.8733 50.2346 26.7891C50.3173 26.6827 50.4043 26.5807 50.4931 26.4793C50.5534 26.4105 50.6123 26.3408 50.6698 26.2696C50.7409 26.1817 50.8163 26.0985 50.893 26.0153C50.9364 25.9669 50.9773 25.9173 51.0178 25.8664C51.1241 25.7347 51.2416 25.6137 51.3578 25.4909C51.4024 25.4436 51.4467 25.396 51.4906 25.348C51.5033 25.3341 51.516 25.3203 51.5291 25.306C51.5587 25.2696 51.5786 25.2355 51.5976 25.1928C51.5081 25.1015 51.4178 25.0128 51.3207 24.9296C51.2765 24.8909 51.2335 24.851 51.1905 24.8109C51.0888 24.7159 50.985 24.6255 50.8763 24.5384C50.8246 24.4957 50.7754 24.4509 50.7262 24.4053C50.6406 24.3266 50.5518 24.2542 50.4599 24.1831C50.3884 24.1277 50.318 24.0713 50.2482 24.0138C50.0838 23.8784 49.9141 23.7514 49.7416 23.6264C49.6991 23.5955 49.6568 23.5644 49.6145 23.5332C49.2846 23.2906 48.9395 23.0692 48.5871 22.8607C48.5724 22.852 48.5576 22.8432 48.5424 22.8342C47.7159 22.3481 46.8178 21.9221 45.8589 21.7887C45.8468 21.7869 45.8346 21.7852 45.822 21.7834C45.331 21.7201 44.7517 21.7415 44.3537 22.0708ZM52.67 26.3025C52.6298 26.3435 52.5903 26.385 52.5513 26.4271C52.5394 26.4398 52.5276 26.4526 52.5153 26.4657C52.4287 26.5594 52.3449 26.6552 52.2625 26.7526C52.2012 26.8248 52.1383 26.895 52.0738 26.9643C51.9958 27.0484 51.9223 27.1353 51.8504 27.2247C51.7965 27.2903 51.7406 27.3541 51.6846 27.418C51.5959 27.5194 51.5111 27.623 51.4286 27.7296C51.3716 27.803 51.3125 27.8742 51.2518 27.9446C51.1618 28.0495 51.0776 28.1584 50.9941 28.2686C50.9059 28.3848 50.8153 28.499 50.7238 28.6126C50.7156 28.6227 50.7075 28.6329 50.6991 28.6433C50.6769 28.6707 50.6542 28.6978 50.6316 28.7249C50.5966 28.7626 50.5966 28.7626 50.6004 28.8039C50.6165 28.8034 50.6327 28.803 50.6493 28.8025C52.0141 28.7632 53.3749 28.7654 54.7397 28.8039C54.7134 28.7475 54.6825 28.6994 54.6453 28.6496C54.6339 28.6344 54.6225 28.6192 54.6108 28.6036C54.5987 28.5875 54.5865 28.5713 54.5739 28.5547C54.5613 28.538 54.5487 28.5212 54.5357 28.504C54.4466 28.3863 54.3551 28.2709 54.2612 28.1568C54.1988 28.081 54.1382 28.0041 54.0788 27.9258C53.9991 27.8213 53.9154 27.721 53.83 27.6212C53.7847 27.5682 53.7405 27.5144 53.6966 27.4603C53.6046 27.3473 53.5096 27.237 53.4144 27.1266C53.385 27.0924 53.3556 27.0581 53.3264 27.0237C53.216 26.8944 53.1043 26.7668 52.9899 26.641C52.9609 26.6089 52.9319 26.5768 52.9029 26.5446C52.8891 26.5293 52.8752 26.514 52.861 26.4982C52.8111 26.4424 52.7622 26.3857 52.7135 26.3288C52.7054 26.3201 52.6973 26.3114 52.6889 26.3025C52.6826 26.3025 52.6764 26.3025 52.67 26.3025ZM50.6756 30.3273C50.6532 30.3285 50.6309 30.3296 50.6078 30.3308C50.2171 30.3504 50.2171 30.3504 49.8267 30.3747C49.7514 30.3799 49.6772 30.3846 49.6018 30.3823C49.4869 30.381 49.4869 30.381 49.3925 30.4396C49.3514 30.4942 49.3176 30.5504 49.2833 30.6094C49.2611 30.6436 49.2383 30.6773 49.2155 30.711C49.1739 30.7727 49.1335 30.8351 49.0928 30.8974C49.0753 30.9242 49.0577 30.951 49.0402 30.9778C48.9097 31.1774 48.7808 31.3779 48.6535 31.5795C48.6258 31.6235 48.5978 31.6674 48.5698 31.7112C48.2072 32.28 47.8655 32.8623 47.5335 33.4494C47.5234 33.4672 47.5133 33.485 47.5029 33.5033C47.2566 33.9384 47.0213 34.3791 46.7911 34.8229C46.7602 34.8824 46.7292 34.9418 46.6981 35.0013C46.5846 35.2191 46.4723 35.4374 46.3622 35.6569C46.3519 35.6775 46.3416 35.698 46.3309 35.7192C46.3166 35.748 46.3166 35.748 46.302 35.7773C46.2894 35.8024 46.2894 35.8024 46.2766 35.828C46.2692 35.8437 46.2617 35.8594 46.2541 35.8756C46.2465 35.8908 46.2389 35.906 46.2311 35.9217C46.2007 36.0212 46.2427 36.1066 46.2873 36.1957C46.2983 36.2177 46.3092 36.2397 46.3205 36.2624C46.3326 36.2863 46.3447 36.3101 46.3567 36.334C46.3693 36.359 46.3818 36.384 46.3943 36.409C46.4206 36.4615 46.447 36.514 46.4735 36.5664C46.5067 36.6323 46.5398 36.6983 46.5728 36.7643C46.7169 37.0522 46.8646 37.3375 47.0206 37.6192C47.0558 37.6832 47.0901 37.7476 47.1243 37.8122C47.1302 37.8234 47.1361 37.8345 47.1422 37.846C47.1597 37.8792 47.1773 37.9124 47.1948 37.9456C47.3067 38.1562 47.4218 38.3645 47.5417 38.5707C47.5739 38.6263 47.6059 38.6821 47.6379 38.7378C47.9325 39.2516 48.2394 39.758 48.5554 40.2589C48.5633 40.2714 48.5711 40.2839 48.5793 40.2967C48.755 40.574 48.9355 40.8482 49.116 41.1223C49.1534 41.179 49.1906 41.2357 49.2279 41.2924C49.2516 41.3285 49.2755 41.3647 49.2993 41.4008C49.3159 41.4261 49.3159 41.4262 49.3329 41.452C49.3431 41.4676 49.3534 41.4831 49.3639 41.4991C49.3729 41.5127 49.3819 41.5264 49.3912 41.5405C49.4282 41.5946 49.4282 41.5946 49.4867 41.6183C49.5006 41.6191 49.5144 41.6199 49.5287 41.6207C49.5448 41.6217 49.5608 41.6227 49.5773 41.6238C49.5949 41.6247 49.6126 41.6256 49.6308 41.6266C49.6494 41.6277 49.6681 41.6288 49.6873 41.6299C49.7502 41.6335 49.8131 41.6368 49.876 41.6401C49.9092 41.6418 49.9092 41.6418 49.9431 41.6437C50.112 41.6526 50.2809 41.6607 50.4498 41.6683C50.4845 41.6699 50.4845 41.6698 50.5198 41.6714C52.1997 41.7458 53.8863 41.7261 55.5646 41.6247C55.5818 41.6237 55.5991 41.6227 55.6169 41.6216C55.6486 41.6197 55.6803 41.6175 55.712 41.6151C55.7407 41.613 55.7695 41.6113 55.7983 41.6101C55.8645 41.6055 55.8995 41.5993 55.9488 41.5538C55.9598 41.5368 55.9707 41.5198 55.982 41.5023C55.9944 41.4835 56.0068 41.4647 56.0196 41.4454C56.0319 41.4258 56.0441 41.4063 56.0568 41.3862C56.0686 41.3682 56.0804 41.3503 56.0926 41.3318C56.129 41.2762 56.1647 41.2202 56.2002 41.164C56.2132 41.1436 56.2262 41.1232 56.2396 41.1022C56.2662 41.0603 56.2929 41.0183 56.3195 40.9764C56.3549 40.9206 56.3904 40.865 56.4259 40.8093C56.4913 40.7071 56.5563 40.6047 56.6212 40.5022C56.6321 40.485 56.6431 40.4678 56.6543 40.4501C56.8406 40.1562 57.0191 39.858 57.196 39.5584C57.2544 39.4597 57.3136 39.3615 57.373 39.2634C57.5011 39.0516 57.6238 38.8374 57.7439 38.6211C57.8014 38.5176 57.8603 38.4149 57.9195 38.3123C58.0273 38.1249 58.1296 37.9347 58.2316 37.7441C58.2702 37.672 58.3091 37.6002 58.3488 37.5287C58.5395 37.1847 58.7174 36.834 58.8948 36.483C58.9087 36.4555 58.9226 36.4281 58.9366 36.4006C58.9735 36.3277 59.01 36.2545 59.046 36.1812C59.0545 36.1643 59.063 36.1475 59.0718 36.1301C59.0792 36.1148 59.0865 36.0996 59.0941 36.0839C59.1004 36.0712 59.1066 36.0585 59.1131 36.0454C59.1424 35.9396 59.0709 35.8375 59.0245 35.7457C59.0164 35.7295 59.0082 35.7132 58.9999 35.6964C58.9734 35.6436 58.9468 35.5909 58.9202 35.5382C58.9019 35.5018 58.8836 35.4654 58.8653 35.429C58.7606 35.2213 58.6538 35.0153 58.5406 34.8121C58.4739 34.6922 58.4102 34.5707 58.3461 34.4493C58.2179 34.2066 58.0859 33.9663 57.9496 33.728C57.9179 33.6724 57.8868 33.6165 57.8558 33.5605C57.7354 33.3436 57.612 33.129 57.4835 32.9167C57.3973 32.7742 57.3127 32.6309 57.2288 32.487C57.1183 32.2976 57.0067 32.1091 56.8887 31.9242C56.8635 31.8847 56.8385 31.8451 56.8136 31.8055C56.7659 31.7298 56.718 31.6542 56.6702 31.5786C56.6397 31.5305 56.6094 31.4823 56.579 31.4342C56.4549 31.2375 56.3281 31.0427 56.1991 30.8492C56.192 30.8386 56.1849 30.8279 56.1776 30.817C56.0451 30.5998 56.0451 30.5998 55.8874 30.4025C55.8345 30.3972 55.7819 30.3931 55.7288 30.3897C55.704 30.388 55.704 30.388 55.6786 30.3863C55.6236 30.3826 55.5685 30.379 55.5135 30.3755C55.4946 30.3743 55.4756 30.373 55.4561 30.3718C55.1794 30.3538 54.9026 30.338 54.6256 30.325C54.6107 30.3242 54.5957 30.3235 54.5803 30.3228C54.4641 30.3172 54.3479 30.3127 54.2317 30.3085C54.2088 30.3077 54.1859 30.3069 54.1624 30.306C53.6704 30.2889 53.1787 30.2859 52.6865 30.2862C52.6572 30.2862 52.6572 30.2862 52.6274 30.2862C51.9761 30.2863 51.3263 30.2942 50.6756 30.3273ZM57.863 30.6094C57.9372 30.7403 58.0151 30.8682 58.0959 30.995C58.4212 31.5068 58.7284 32.0304 59.028 32.5576C59.0709 32.6331 59.1142 32.7084 59.1575 32.7836C59.316 33.0588 59.4694 33.3363 59.619 33.6165C59.6801 33.7303 59.7423 33.8435 59.8044 33.9567C59.8488 34.0377 59.8922 34.1187 59.9327 34.2017C59.9807 34.1537 60.0003 34.0998 60.0258 34.0381C60.0313 34.0251 60.0367 34.0121 60.0423 33.9988C60.0604 33.9556 60.0783 33.9123 60.0962 33.869C60.1024 33.854 60.1086 33.8391 60.115 33.8236C60.4359 33.0493 60.7223 32.262 60.9833 31.4657C61.0017 31.41 61.0206 31.3545 61.0397 31.2991C61.0645 31.2332 61.0645 31.2332 61.0616 31.1737C60.8133 31.102 60.5612 31.0512 60.3078 31.0009C60.2854 30.9964 60.263 30.9919 60.2399 30.9873C59.5192 30.844 58.7944 30.7265 58.0662 30.6282C58.0521 30.6262 58.0379 30.6243 58.0233 30.6223C57.9694 30.6152 57.9175 30.6094 57.863 30.6094ZM47.3057 30.6164C47.2904 30.6184 47.2751 30.6205 47.2594 30.6226C47.2427 30.625 47.226 30.6273 47.2089 30.6298C47.1822 30.6334 47.1822 30.6334 47.1551 30.6372C47.0958 30.6454 47.0365 30.6538 46.9773 30.6623C46.9567 30.6652 46.9361 30.6682 46.9148 30.6712C46.1341 30.7823 45.3576 30.9174 44.5857 31.079C44.5697 31.0824 44.5538 31.0857 44.5373 31.0891C44.4498 31.1077 44.3642 31.1292 44.2785 31.1549C44.3245 31.3624 44.3921 31.5624 44.4596 31.7637C44.4657 31.782 44.4718 31.8003 44.478 31.8191C44.6809 32.4256 44.9041 33.0258 45.144 33.6186C45.1539 33.6434 45.1639 33.6682 45.1739 33.693C45.1999 33.7573 45.226 33.8216 45.2522 33.8858C45.2623 33.9104 45.2723 33.9351 45.2823 33.9598C45.2961 33.9937 45.31 34.0276 45.324 34.0614C45.3319 34.0808 45.3398 34.1002 45.348 34.1202C45.3656 34.1667 45.3656 34.1667 45.4074 34.1829C45.4142 34.1697 45.421 34.1564 45.428 34.1428C45.5706 33.8659 45.715 33.5903 45.8656 33.3176C45.8937 33.2665 45.9217 33.2154 45.9497 33.1643C46.0946 32.8994 46.2422 32.6366 46.3954 32.3764C46.4406 32.2995 46.4853 32.2224 46.5296 32.145C46.6832 31.8764 46.8422 31.6118 47.0055 31.349C47.046 31.2838 47.0862 31.2184 47.1262 31.153C47.1398 31.1309 47.1534 31.1087 47.167 31.0866C47.1926 31.0448 47.2181 31.0031 47.2437 30.9614C47.3129 30.8487 47.3839 30.7376 47.4582 30.6282C47.4035 30.6118 47.3622 30.6086 47.3057 30.6164ZM42.6193 31.5705C42.6054 31.5747 42.5914 31.5789 42.577 31.5833C42.5303 31.5975 42.4836 31.6118 42.4369 31.6262C42.4208 31.6312 42.4046 31.6362 42.3879 31.6413C41.7601 31.8352 41.14 32.047 40.5342 32.3021C40.5021 32.3156 40.5021 32.3156 40.4693 32.3294C39.0307 32.939 37.1897 33.8574 36.5454 35.3866C36.3826 35.8171 36.4038 36.2227 36.5835 36.6439C36.6787 36.8529 36.7984 37.0494 36.9405 37.2297C36.9523 37.245 36.964 37.2603 36.976 37.2761C37.231 37.6033 37.5336 37.9171 37.8625 38.1701C37.8839 38.1874 37.9052 38.2048 37.9264 38.2222C38.0999 38.3641 38.2798 38.4948 38.4646 38.6215C38.4822 38.6336 38.4822 38.6336 38.5001 38.646C39.6176 39.4146 40.8939 39.9534 42.1782 40.3729C42.1941 40.3781 42.2099 40.3833 42.2263 40.3887C42.4072 40.4478 42.5866 40.5015 42.7733 40.5398C42.7792 40.5207 42.7851 40.5016 42.7912 40.4819C43.2171 39.1119 43.7241 37.7678 44.316 36.4606C44.3247 36.4414 44.3247 36.4414 44.3336 36.4219C44.3602 36.3632 44.387 36.3046 44.414 36.2461C44.4233 36.2259 44.4325 36.2058 44.442 36.185C44.45 36.1678 44.458 36.1505 44.4662 36.1328C44.4972 36.0517 44.5128 35.996 44.4856 35.9117C44.4757 35.8911 44.4658 35.8705 44.4556 35.8493C44.4502 35.8377 44.4448 35.8261 44.4392 35.8142C44.4274 35.7891 44.4154 35.764 44.4034 35.7389C44.3701 35.6697 44.3379 35.5999 44.3056 35.5302C44.2953 35.5081 44.2953 35.5081 44.2848 35.4856C44.2075 35.3189 44.135 35.1502 44.0633 34.981C44.0566 34.9654 44.05 34.9498 44.0432 34.9337C43.8904 34.5727 43.7441 34.2093 43.6011 33.8443C43.5963 33.8319 43.5914 33.8195 43.5864 33.8067C43.5205 33.6381 43.4566 33.4688 43.3942 33.2989C43.3867 33.2785 43.3867 33.2785 43.379 33.2578C43.169 32.6869 42.9785 32.11 42.7921 31.531C42.7319 31.531 42.6765 31.553 42.6193 31.5705ZM62.548 31.5686C62.5408 31.591 62.5337 31.6133 62.5263 31.6364C62.1373 32.8479 61.6882 34.0341 61.1745 35.1985C61.1695 35.2099 61.1645 35.2213 61.1593 35.233C61.1066 35.3525 61.0537 35.4719 61.0005 35.5912C60.9881 35.6193 60.9881 35.6193 60.9753 35.648C60.9563 35.6896 60.9366 35.7308 60.9164 35.7719C60.9007 35.8043 60.9007 35.8043 60.8846 35.8373C60.8748 35.8568 60.8651 35.8763 60.855 35.8963C60.8281 35.9727 60.8422 36.0151 60.8727 36.0879C60.8802 36.1028 60.8876 36.1177 60.8953 36.1331C60.9039 36.1505 60.9124 36.1678 60.9212 36.1858C60.9307 36.2048 60.9402 36.2239 60.9499 36.2435C61.5381 37.45 62.0188 38.7081 62.4594 39.9747C62.4801 40.0342 62.5008 40.0937 62.5215 40.1532C62.5555 40.2507 62.5894 40.3482 62.6233 40.4458C62.7315 40.4339 62.8294 40.4064 62.9327 40.3727C62.9498 40.3672 62.967 40.3617 62.9846 40.356C63.0406 40.3379 63.0965 40.3196 63.1524 40.3012C63.1717 40.2949 63.1909 40.2886 63.2107 40.2822C63.5838 40.1599 63.9519 40.027 64.3166 39.8816C64.3292 39.8766 64.3418 39.8716 64.3547 39.8664C65.105 39.5672 65.8282 39.2107 66.518 38.7907C66.5351 38.7803 66.5522 38.77 66.5698 38.7593C67.2045 38.3716 67.841 37.8906 68.3055 37.3049C68.3132 37.2953 68.321 37.2856 68.3289 37.2757C68.6619 36.8598 68.9347 36.3692 68.8887 35.8191C68.8133 35.2642 68.4584 34.7999 68.0797 34.4086C68.0678 34.3962 68.0559 34.3839 68.0436 34.3712C67.8935 34.2168 67.7418 34.0708 67.5717 33.9384C67.5509 33.9214 67.5302 33.9044 67.5095 33.8873C66.5838 33.1272 65.4653 32.584 64.3543 32.1517C64.3425 32.1471 64.3308 32.1425 64.3187 32.1378C63.8891 31.9708 63.4534 31.8247 63.0148 31.6837C62.9989 31.6786 62.983 31.6735 62.9667 31.6682C62.9213 31.6537 62.8757 31.6394 62.8302 31.625C62.8055 31.617 62.8055 31.617 62.7803 31.6089C62.7638 31.6037 62.7474 31.5985 62.7305 31.5932C62.7084 31.5861 62.7084 31.5861 62.6859 31.5789C62.6386 31.5678 62.5965 31.5668 62.548 31.5686ZM59.9515 37.7563C59.9409 37.7761 59.9409 37.7761 59.9301 37.7963C59.915 37.8244 59.915 37.8244 59.8997 37.853C59.8884 37.874 59.8771 37.8951 59.8655 37.9168C59.8402 37.964 59.8149 38.0113 59.7895 38.0585C59.725 38.1789 59.6605 38.2993 59.5963 38.4199C59.4593 38.6771 59.3196 38.9325 59.1749 39.1854C59.1401 39.2463 59.1055 39.3072 59.0709 39.3682C58.9169 39.6391 58.76 39.9081 58.6004 40.1758C58.5504 40.2596 58.5008 40.3436 58.4512 40.4276C58.3046 40.6762 58.1573 40.9237 57.9999 41.1657C57.9901 41.1809 57.9802 41.1961 57.97 41.2118C57.9573 41.2311 57.9573 41.2311 57.9444 41.2509C57.9142 41.3009 57.8886 41.3525 57.863 41.405C58.1453 41.378 58.4256 41.3403 58.7062 41.2992C58.7287 41.2959 58.7513 41.2926 58.7745 41.2892C59.3876 41.1993 59.9968 41.0942 60.6042 40.971C60.6494 40.9618 60.6947 40.9527 60.74 40.9436C60.8029 40.931 60.8657 40.9181 60.9285 40.905C60.9475 40.9013 60.9664 40.8975 60.986 40.8937C61.0032 40.89 61.0204 40.8863 61.0381 40.8826C61.0532 40.8795 61.0682 40.8764 61.0838 40.8732C61.0951 40.8687 61.1064 40.8642 61.1181 40.8596C61.1388 40.7974 61.136 40.7867 61.1159 40.7275C61.1107 40.7122 61.1056 40.6969 61.1003 40.6812C61.0945 40.6645 61.0887 40.6479 61.0828 40.6307C61.0768 40.6132 61.0709 40.5957 61.0648 40.5777C61.0451 40.52 61.0252 40.4623 61.0052 40.4047C60.9983 40.3848 60.9915 40.3649 60.9844 40.3444C60.6828 39.4681 60.3427 38.6051 59.9703 37.7563C59.9641 37.7563 59.9579 37.7563 59.9515 37.7563ZM45.3886 37.8127C45.0591 38.557 44.7802 39.3234 44.5137 40.092C44.5064 40.113 44.4991 40.134 44.4916 40.1556C44.3363 40.5281 44.3363 40.5281 44.2597 40.916C44.9391 41.0804 45.6308 41.19 46.3223 41.2898C46.3588 41.2951 46.3588 41.2951 46.3961 41.3004C46.6391 41.3354 46.8823 41.3691 47.1259 41.4004C47.1531 41.404 47.1531 41.404 47.1809 41.4077C47.2805 41.4202 47.3766 41.4261 47.477 41.4238C47.4477 41.3391 47.4018 41.2686 47.3524 41.1946C47.1067 40.8205 46.8783 40.4352 46.6492 40.0508C46.6386 40.0331 46.628 40.0154 46.6171 39.9971C46.4717 39.7535 46.3301 39.5079 46.1914 39.2604C46.1594 39.2035 46.1274 39.1467 46.0953 39.0899C45.8578 38.6685 45.6298 38.2422 45.4074 37.8127C45.4012 37.8127 45.395 37.8127 45.3886 37.8127ZM61.3347 42.3611C61.301 42.3687 61.2674 42.3763 61.2337 42.3839C61.2157 42.3879 61.1977 42.392 61.1792 42.3962C60.1203 42.6339 59.0459 42.7972 57.9689 42.9272C57.9299 42.9319 57.891 42.9366 57.8521 42.9415C57.6545 42.966 57.4583 42.9867 57.2594 42.9958C56.9361 42.9961 56.9361 42.9961 56.6613 43.1349C56.6044 43.2085 56.565 43.2872 56.5287 43.3725C56.4988 43.4384 56.4579 43.493 56.4143 43.5502C56.399 43.5713 56.3838 43.5924 56.3687 43.6136C56.3609 43.6243 56.3531 43.6351 56.3451 43.6461C56.3179 43.6839 56.2906 43.7218 56.2634 43.7596C56.0402 44.0697 55.8139 44.3768 55.5781 44.6776C55.5367 44.7306 55.4957 44.784 55.4547 44.8374C55.4319 44.867 55.4092 44.8965 55.3864 44.9261C55.3677 44.9504 55.349 44.9747 55.3303 44.999C55.2115 45.1534 55.092 45.3067 54.9649 45.4545C54.9041 45.5254 54.8463 45.5981 54.7891 45.672C54.6872 45.8032 54.5788 45.9282 54.4692 46.0531C54.4197 46.1098 54.371 46.1671 54.3222 46.2244C54.2389 46.322 54.1537 46.4173 54.0671 46.512C53.9706 46.6174 53.88 46.7225 53.7989 46.8404C53.8941 46.9372 53.9894 47.0322 54.0926 47.1204C54.1559 47.1762 54.2172 47.234 54.2787 47.2918C54.3745 47.3814 54.4706 47.4699 54.5704 47.5551C54.5889 47.5711 54.6075 47.5872 54.6267 47.6038C54.8902 47.8314 55.1592 48.0509 55.4371 48.2609C55.4705 48.2863 55.5037 48.3119 55.5367 48.3377C56.0727 48.7555 56.6499 49.1287 57.2499 49.4474C57.2949 49.4715 57.3396 49.496 57.3843 49.5207C57.9275 49.8188 58.5281 50.0564 59.1362 50.1793C59.1647 50.185 59.1931 50.191 59.2214 50.1973C59.4306 50.2433 59.6393 50.2503 59.8527 50.2516C59.8658 50.2517 59.8788 50.2519 59.8923 50.252C60.3442 50.256 60.7316 50.1279 61.0616 49.812C61.0732 49.8016 61.0848 49.7912 61.0967 49.7805C61.2044 49.6805 61.2842 49.559 61.3627 49.4358C61.3696 49.4249 61.3765 49.4141 61.3837 49.4029C61.7436 48.8276 61.8957 48.1287 61.9871 47.4645C61.99 47.4436 61.9929 47.4227 61.9959 47.4012C62.0498 46.9855 62.0655 46.5691 62.0635 46.1504C62.0635 46.1274 62.0634 46.1044 62.0633 46.0807C62.0622 45.7244 62.0552 45.371 62.0212 45.016C62.0198 45.0012 62.0184 44.9865 62.017 44.9712C61.9417 44.1613 61.8082 43.3638 61.6247 42.5715C61.6058 42.49 61.5877 42.4083 61.5696 42.3266C61.4873 42.3266 61.4143 42.3427 61.3347 42.3611ZM43.8269 42.4018C43.5888 43.399 43.3906 44.4053 43.3189 45.4298C43.3171 45.4531 43.3154 45.4765 43.3136 45.5005C43.2956 45.761 43.2959 46.0221 43.2956 46.2831C43.2955 46.336 43.2952 46.3889 43.2948 46.4417C43.2865 47.4812 43.3842 48.7276 44.0339 49.5863C44.0472 49.604 44.0605 49.6216 44.0742 49.6398C44.3375 49.9749 44.6605 50.1573 45.0758 50.2316C46.8429 50.4406 48.6959 49.2596 50.198 48.1095C50.4003 47.9495 50.5997 47.7861 50.7958 47.6186C50.8271 47.5919 50.8585 47.5654 50.8899 47.5389C51.0213 47.4278 51.1487 47.3133 51.2739 47.1954C51.3446 47.1288 51.4163 47.0641 51.49 47.0008C51.5472 46.9499 51.6005 46.8951 51.654 46.8404C51.5753 46.7473 51.4942 46.6574 51.4106 46.5688C51.3312 46.4842 51.2524 46.3994 51.1767 46.3114C51.1397 46.2689 51.1017 46.2273 51.0637 46.1856C50.9894 46.1034 50.9194 46.0184 50.8497 45.9323C50.8086 45.8827 50.7661 45.8348 50.7227 45.7871C50.6499 45.7073 50.5813 45.6248 50.5133 45.5409C50.4655 45.4824 50.4166 45.4249 50.3675 45.3675C50.2876 45.2737 50.2107 45.178 50.135 45.0808C50.0683 44.9952 50 44.9108 49.9313 44.8268C49.8429 44.7185 49.7565 44.6091 49.6717 44.4979C49.6352 44.4501 49.5982 44.4025 49.5611 44.3551C49.4134 44.1667 49.2697 43.9758 49.1284 43.7825C49.0946 43.7364 49.0607 43.6904 49.0267 43.6444C48.9166 43.4956 48.8069 43.3466 48.7004 43.1952C48.6441 43.1079 48.6441 43.1079 48.5534 43.0696C48.5197 43.0664 48.5197 43.0664 48.4852 43.0632C48.4727 43.0619 48.4602 43.0607 48.4473 43.0594C48.4199 43.0567 48.3925 43.0541 48.3651 43.0516C48.3209 43.0475 48.2767 43.0432 48.2325 43.0389C48.1689 43.0326 48.1052 43.0264 48.0416 43.0203C47.8729 43.0041 47.7042 42.987 47.5356 42.9698C47.5101 42.9672 47.5101 42.9672 47.4841 42.9646C46.3835 42.8521 45.2895 42.6844 44.2063 42.4591C44.1876 42.4552 44.169 42.4514 44.1498 42.4474C44.1152 42.4402 44.0807 42.433 44.0463 42.4257C43.972 42.4102 43.9033 42.3972 43.8269 42.4018ZM54.3668 43.2004C54.0968 43.2106 53.8268 43.2166 53.5567 43.2211C53.5334 43.2215 53.5101 43.2219 53.4861 43.2223C52.845 43.2329 52.205 43.2294 51.564 43.2172C51.249 43.2114 50.9342 43.2093 50.6192 43.2105C50.6307 43.2311 50.6423 43.2517 50.6542 43.273C50.6639 43.2904 50.6639 43.2904 50.6739 43.3081C50.7047 43.3592 50.7425 43.4029 50.7815 43.448C50.8559 43.5352 50.9268 43.6244 50.9962 43.7158C51.07 43.8122 51.1465 43.9062 51.2234 44.0001C51.2897 44.0813 51.3546 44.1633 51.4188 44.2461C51.5203 44.3765 51.6286 44.5006 51.7374 44.6248C51.7827 44.6768 51.8272 44.7294 51.8716 44.7821C52.0316 44.9716 52.192 45.1599 52.3604 45.3419C52.4096 45.3954 52.4575 45.4497 52.505 45.5046C52.5717 45.5808 52.6398 45.6556 52.7077 45.7307C52.792 45.6619 52.8653 45.5915 52.9358 45.5086C52.9741 45.4639 53.0137 45.4204 53.0534 45.3769C53.1259 45.2966 53.1945 45.2137 53.2626 45.1296C53.3171 45.0636 53.3733 44.9993 53.4297 44.9349C53.5184 44.8336 53.6031 44.73 53.6856 44.6236C53.7438 44.5485 53.8041 44.4757 53.866 44.4036C53.9491 44.3065 54.028 44.2068 54.1054 44.105C54.1423 44.0563 54.1798 44.008 54.2175 43.9599C54.3767 43.7569 54.5316 43.5509 54.6833 43.3422C54.6926 43.3293 54.702 43.3165 54.7117 43.3033C54.7567 43.2521 54.7567 43.2521 54.7773 43.1917C54.6402 43.1906 54.5038 43.195 54.3668 43.2004Z" fill="#6C6C6C"/>
<path d="M52.617 32.7876C52.6545 32.7876 52.692 32.7872 52.7295 32.7869C53.4981 32.7858 54.1986 33.087 54.7775 33.581C54.8002 33.6002 54.8002 33.6002 54.8233 33.6198C55.1032 33.8618 55.3254 34.1742 55.4925 34.5026C55.499 34.5153 55.5056 34.528 55.5124 34.5411C55.8993 35.2958 55.9449 36.178 55.6901 36.9827C55.5775 37.317 55.4082 37.629 55.1914 37.9068C55.1782 37.9242 55.1649 37.9416 55.1513 37.9595C54.6324 38.6199 53.8717 39.0278 53.0418 39.134C52.4481 39.1999 51.8333 39.1134 51.2967 38.8472C51.2836 38.8408 51.2705 38.8344 51.2571 38.8278C50.5293 38.4696 49.9379 37.8356 49.6611 37.0685C49.625 36.9604 49.5943 36.851 49.5657 36.7407C49.5597 36.7184 49.5537 36.6961 49.5476 36.6731C49.3536 35.8677 49.5142 34.9901 49.9432 34.2873C49.9788 34.2323 50.016 34.1792 50.0549 34.1265C50.062 34.1167 50.0692 34.1069 50.0766 34.0968C50.388 33.6736 50.7719 33.3484 51.2402 33.1109C51.2613 33.1001 51.2823 33.0893 51.304 33.0782C51.7166 32.8777 52.1604 32.7876 52.617 32.7876Z" fill="#6C6C6C"/>
<path d="M77.1719 25.8447C85.9652 25.8447 85.9652 25.8447 86.5041 25.939C86.5287 25.9432 86.5533 25.9474 86.5786 25.9518C87.1932 26.0619 87.7788 26.2526 88.3404 26.5234C88.3589 26.5323 88.3774 26.5413 88.3965 26.5504C88.9317 26.8116 89.393 27.1728 89.8245 27.5792C89.8429 27.5966 89.8613 27.6139 89.8803 27.6317C90.0164 27.7637 90.1355 27.9076 90.2521 28.0568C90.2627 28.0703 90.2733 28.0837 90.2843 28.0975C91.2872 29.3775 91.6096 31.0813 91.4357 32.6744C91.2761 33.921 90.8013 35.0639 89.9251 35.9751C89.9129 35.988 89.9006 36.0008 89.888 36.014C89.5073 36.4093 89.0724 36.7228 88.5887 36.9807C88.5454 37.0038 88.5023 37.0274 88.4593 37.051C87.7925 37.4027 87.0699 37.564 86.3281 37.6594C86.3644 37.7607 86.4134 37.8434 86.4735 37.9325C86.4829 37.9465 86.4922 37.9605 86.5019 37.9749C86.5319 38.0196 86.562 38.0641 86.5922 38.1087C86.6116 38.1376 86.6311 38.1666 86.6505 38.1955C86.6904 38.2547 86.7302 38.3139 86.7701 38.3731C86.8407 38.4779 86.9109 38.5831 86.981 38.6882C87.0563 38.8013 87.1318 38.9143 87.2073 39.0273C87.2673 39.1171 87.3274 39.207 87.3874 39.2969C87.4179 39.3426 87.4485 39.3883 87.479 39.434C87.643 39.6792 87.806 39.9249 87.9658 40.1728C88.0476 40.2995 88.1308 40.4252 88.2147 40.5505C88.3067 40.6879 88.3978 40.8258 88.4888 40.9639C88.504 40.987 88.5193 41.0102 88.5351 41.0341C88.5981 41.1297 88.6611 41.2254 88.7241 41.3211C88.9306 41.6346 89.1379 41.9475 89.3466 42.2595C89.3699 42.2945 89.3933 42.3294 89.4167 42.3644C89.4281 42.3814 89.4395 42.3985 89.4513 42.4161C89.4968 42.4842 89.5423 42.5523 89.5878 42.6205C89.6104 42.6542 89.6329 42.6879 89.6554 42.7216C89.8052 42.9453 89.9531 43.1702 90.0996 43.396C90.2609 43.6443 90.4239 43.8914 90.587 44.1386C90.6029 44.1627 90.6188 44.1868 90.6352 44.2116C90.8181 44.4889 91.0013 44.7659 91.186 45.0419C91.2988 45.2107 91.4113 45.3795 91.5224 45.5494C91.5399 45.5759 91.5399 45.5759 91.5578 45.603C91.6356 45.7227 91.6356 45.7227 91.6356 45.7788C91.2549 45.7847 90.8743 45.7891 90.4936 45.7918C90.3168 45.7931 90.14 45.7949 89.9633 45.7977C89.7927 45.8005 89.6221 45.802 89.4515 45.8026C89.3864 45.8031 89.3213 45.804 89.2562 45.8054C89.165 45.8072 89.0739 45.8074 88.9827 45.8073C88.9558 45.8082 88.9289 45.8091 88.9012 45.8101C88.7874 45.8085 88.7201 45.8063 88.6373 45.7236C88.5922 45.6599 88.5535 45.596 88.5165 45.5274C88.4999 45.5019 88.4833 45.4765 88.4662 45.4503C88.4531 45.429 88.44 45.4078 88.4265 45.3859C88.4114 45.3617 88.3964 45.3375 88.3809 45.3125C88.3655 45.2875 88.35 45.2625 88.3341 45.2368C88.2239 45.0593 88.1133 44.8823 87.9992 44.7073C87.8956 44.5482 87.793 44.3884 87.6911 44.2281C87.6763 44.2048 87.6614 44.1815 87.6461 44.1574C87.5716 44.0403 87.4972 43.9231 87.4229 43.8059C87.2718 43.5679 87.1194 43.331 86.9648 43.0953C86.8429 42.9096 86.7246 42.7223 86.6098 42.5321C86.5001 42.3514 86.3842 42.1748 86.2682 41.9981C86.131 41.7889 85.9971 41.5779 85.864 41.3662C85.6882 41.0873 85.5109 40.8093 85.3313 40.5329C85.2236 40.3671 85.1175 40.2002 85.012 40.0329C84.7732 39.6542 84.5318 39.277 84.2901 38.9C84.2069 38.7701 84.1239 38.6402 84.0412 38.5101C84.0254 38.4854 84.0097 38.4606 83.9935 38.4351C83.9641 38.3889 83.9348 38.3427 83.9055 38.2964C83.8921 38.2754 83.8788 38.2544 83.8651 38.2328C83.8537 38.2148 83.8423 38.1968 83.8305 38.1783C83.8163 38.1564 83.8021 38.1344 83.7875 38.1118C83.7796 38.0937 83.7718 38.0755 83.7637 38.0568C83.728 37.986 83.6957 37.9388 83.6365 37.8856C83.51 37.8512 83.3845 37.8555 83.2546 37.8576C83.2148 37.8574 83.1749 37.8571 83.1351 37.8568C83.0287 37.856 82.9223 37.8567 82.8159 37.8576C82.716 37.8582 82.616 37.8577 82.5161 37.8572C82.224 37.8565 81.932 37.8578 81.6399 37.8589C80.6609 37.8597 80.6609 37.8597 79.6622 37.8605C79.6622 40.4735 79.6622 43.0865 79.6622 45.7788C78.8404 45.7788 78.0186 45.7788 77.1719 45.7788C77.1719 39.2005 77.1719 32.6223 77.1719 25.8447ZM79.6622 28.082C79.6622 30.5872 79.6622 33.0924 79.6622 35.6735C80.9571 35.6751 80.9571 35.6751 82.2782 35.6766C82.6856 35.6773 82.6856 35.6773 83.1012 35.678C83.3468 35.6782 83.3468 35.6782 83.5923 35.6783C83.7009 35.6783 83.8094 35.6785 83.9179 35.6788C84.0571 35.6792 84.1964 35.6793 84.3356 35.6792C84.3862 35.6792 84.4368 35.6793 84.4874 35.6795C85.3798 35.6828 86.2155 35.578 87.0072 35.1456C87.0347 35.1308 87.0621 35.1161 87.0903 35.1008C87.8887 34.6542 88.469 33.8599 88.7237 32.9894C89.0053 31.9417 88.8896 30.8369 88.3703 29.884C88.2105 29.6158 88.014 29.3768 87.787 29.1629C87.767 29.1426 87.7469 29.1223 87.7263 29.1014C87.5261 28.9038 87.302 28.7479 87.0575 28.6099C87.0357 28.5975 87.0357 28.5975 87.0135 28.5848C86.5368 28.3183 86.012 28.1764 85.4728 28.1071C85.457 28.105 85.4412 28.103 85.4249 28.1008C85.2851 28.0838 85.148 28.0785 85.0072 28.0789C84.9843 28.0789 84.9613 28.0789 84.9377 28.0789C84.8611 28.0788 84.7846 28.079 84.7081 28.0791C84.6522 28.0791 84.5962 28.0791 84.5403 28.0791C84.3908 28.0791 84.2414 28.0792 84.0919 28.0794C83.9515 28.0796 83.8112 28.0796 83.6708 28.0796C83.2606 28.0797 82.8504 28.0801 82.4401 28.0804C81.065 28.0812 81.065 28.0812 79.6622 28.082Z" fill="#6C6C6C"/>
<path d="M102.88 31.2996C102.902 31.3061 102.924 31.3127 102.946 31.3195C103.781 31.5744 104.517 32.0363 105.169 32.6067C105.182 32.6181 105.195 32.6294 105.208 32.6411C105.515 32.9111 105.779 33.2101 106.024 33.5368C106.036 33.5529 106.048 33.569 106.061 33.5856C106.908 34.7239 107.364 36.1094 107.533 37.5085C107.536 37.5286 107.538 37.5487 107.541 37.5693C107.612 38.1419 107.583 38.7167 107.583 39.2933C103.74 39.2933 99.8968 39.2933 95.937 39.2933C96.0549 40.0887 96.0549 40.0887 96.264 40.8518C96.2704 40.8708 96.2767 40.8897 96.2833 40.9092C96.5352 41.6542 96.974 42.3043 97.5217 42.8628C97.5364 42.8779 97.551 42.893 97.5661 42.9085C98.2179 43.5725 99.1344 43.9743 100.037 44.1448C100.069 44.151 100.069 44.151 100.101 44.1572C100.965 44.3173 101.884 44.2396 102.729 44.0192C102.75 44.0138 102.77 44.0083 102.792 44.0028C103.736 43.7526 104.615 43.269 105.326 42.6C105.349 42.5789 105.371 42.5578 105.395 42.536C105.408 42.5238 105.421 42.5116 105.435 42.4991C105.475 42.4635 105.475 42.4635 105.546 42.4104C105.644 42.4429 105.674 42.5015 105.73 42.5832C105.752 42.6155 105.775 42.6478 105.798 42.6801C105.81 42.6975 105.822 42.7149 105.834 42.7328C105.902 42.829 105.973 42.9236 106.043 43.0184C106.057 43.0382 106.072 43.0581 106.087 43.0786C106.118 43.1196 106.148 43.1606 106.178 43.2016C106.273 43.3304 106.368 43.4593 106.463 43.5883C106.477 43.607 106.491 43.6258 106.505 43.6451C106.517 43.6616 106.53 43.678 106.542 43.695C106.579 43.7445 106.616 43.7939 106.653 43.8432C106.612 43.9517 106.529 44.02 106.445 44.0961C106.422 44.1178 106.422 44.1178 106.398 44.1398C106.238 44.2846 106.071 44.4178 105.898 44.547C105.881 44.56 105.864 44.573 105.846 44.5863C105.445 44.889 105.019 45.136 104.565 45.3514C104.547 45.3603 104.528 45.3692 104.51 45.3783C103.626 45.8052 102.648 46.0307 101.672 46.1056C101.645 46.1077 101.645 46.1077 101.617 46.11C100.244 46.2146 98.8195 46.0273 97.572 45.4269C97.5547 45.4186 97.5373 45.4103 97.5194 45.4017C96.5773 44.9491 95.7056 44.2856 95.0818 43.441C95.0632 43.4172 95.0445 43.3935 95.0254 43.369C94.2182 42.3314 93.7774 41.0619 93.5977 39.7709C93.5948 39.7508 93.592 39.7307 93.5891 39.7099C93.5278 39.2563 93.5125 38.7955 93.5222 38.3381C93.5225 38.3192 93.5228 38.3004 93.5232 38.281C93.5526 36.8322 93.9741 35.3508 94.7799 34.1401C94.7917 34.1224 94.8035 34.1047 94.8156 34.0864C95.0395 33.7533 95.2845 33.4292 95.5715 33.1478C95.6149 33.1046 95.6544 33.0592 95.6933 33.0121C95.7984 32.8908 95.9165 32.787 96.0376 32.6821C96.062 32.6606 96.0863 32.6391 96.1114 32.6169C96.5412 32.2413 97.027 31.9202 97.5435 31.6769C97.5799 31.6597 97.6163 31.6422 97.6525 31.6245C98.3791 31.2705 99.181 31.059 99.9869 30.9979C100.019 30.9952 100.052 30.9924 100.085 30.9896C101.031 30.9186 101.972 31.0264 102.88 31.2996ZM99.6599 32.9335C99.6387 32.938 99.6176 32.9424 99.5958 32.947C98.8635 33.106 98.1924 33.426 97.6352 33.93C97.601 33.9608 97.5661 33.9909 97.5312 34.0209C97.4072 34.1276 97.2991 34.2406 97.1947 34.3663C97.1774 34.3864 97.1602 34.4065 97.1424 34.4272C96.3877 35.3201 95.9842 36.4521 95.9119 37.6091C99.0247 37.6091 102.138 37.6091 105.345 37.6091C105.345 37.4101 105.341 37.2261 105.315 37.0309C105.312 37.0062 105.308 36.9814 105.305 36.9559C105.134 35.7526 104.511 34.5195 103.528 33.7767C102.989 33.3781 102.391 33.0944 101.734 32.9524C101.716 32.9486 101.699 32.9448 101.681 32.9408C101.334 32.8712 100.987 32.8485 100.635 32.8502C100.615 32.8503 100.596 32.8503 100.577 32.8504C100.266 32.8516 99.9646 32.8687 99.6599 32.9335Z" fill="#6C6C6C"/>
<path d="M116.831 30.9916C116.861 30.9916 116.89 30.9916 116.921 30.9915C117.352 30.9916 117.772 31.0031 118.199 31.0733C118.238 31.0792 118.277 31.0849 118.316 31.0907C119.568 31.2846 120.793 31.8385 121.579 32.8603C122.211 33.7477 122.455 34.7736 122.453 35.8516C122.453 35.8946 122.453 35.9375 122.453 35.9805C122.453 36.0979 122.453 36.2153 122.453 36.3327C122.452 36.4596 122.453 36.5864 122.453 36.7133C122.453 36.9329 122.452 37.1525 122.452 37.372C122.452 37.6895 122.452 38.0069 122.452 38.3244C122.452 38.8395 122.452 39.3546 122.452 39.8697C122.451 40.37 122.451 40.8702 122.451 41.3705C122.451 41.4168 122.451 41.4168 122.451 41.464C122.451 41.6188 122.451 41.7736 122.451 41.9284C122.451 43.2119 122.45 44.4953 122.45 45.7788C121.703 45.7788 120.956 45.7788 120.186 45.7788C120.177 45.2562 120.169 44.7336 120.161 44.1951C120.086 44.2781 120.011 44.361 119.934 44.4465C119.868 44.5071 119.802 44.5649 119.733 44.6225C119.71 44.6428 119.687 44.6632 119.664 44.6841C118.518 45.6949 116.969 46.1377 115.463 46.1354C115.444 46.1354 115.425 46.1354 115.406 46.1354C115.134 46.1348 114.87 46.1274 114.602 46.0804C114.582 46.0773 114.562 46.0742 114.542 46.071C113.569 45.9166 112.473 45.4803 111.784 44.7481C111.784 44.7316 111.784 44.715 111.784 44.6979C111.763 44.6892 111.763 44.6892 111.741 44.6803C111.123 44.3293 110.738 43.3336 110.552 42.6869C110.31 41.7978 110.323 40.7817 110.577 39.8966C110.582 39.8789 110.587 39.8613 110.592 39.8431C110.729 39.3723 110.942 38.9353 111.231 38.5392C111.246 38.5185 111.261 38.4978 111.276 38.4764C111.4 38.3111 111.542 38.1615 111.684 38.0113C111.699 37.994 111.715 37.9767 111.731 37.9589C112.029 37.6419 112.409 37.4092 112.79 37.2069C112.808 37.1977 112.825 37.1886 112.842 37.1791C113.266 36.9557 113.735 36.8084 114.202 36.7057C114.224 36.701 114.245 36.6963 114.267 36.6914C114.661 36.611 115.051 36.5942 115.452 36.5957C115.477 36.5958 115.502 36.5958 115.527 36.5959C117.157 36.6016 118.778 37.0758 119.949 38.2507C119.964 38.2662 119.98 38.2817 119.996 38.2976C120.012 38.3137 120.028 38.3298 120.044 38.3463C120.083 38.3854 120.122 38.4246 120.161 38.4638C120.162 38.1041 120.164 37.7444 120.165 37.3847C120.165 37.2176 120.165 37.0505 120.166 36.8835C120.167 36.7219 120.168 36.5604 120.168 36.3989C120.168 36.3376 120.168 36.2763 120.169 36.2149C120.174 35.3462 119.99 34.5914 119.376 33.9484C118.789 33.383 118.032 33.1378 117.243 33.0089C117.217 33.0046 117.217 33.0046 117.19 33.0003C116.983 32.9721 116.771 32.9776 116.562 32.9775C116.541 32.9775 116.519 32.9775 116.498 32.9774C115.18 32.9791 113.934 33.393 112.916 34.2407C112.902 34.2522 112.888 34.2637 112.874 34.2756C112.62 34.4828 112.39 34.7105 112.162 34.9445C112.073 34.915 112.063 34.8956 112.014 34.8194C111.993 34.7875 111.993 34.7875 111.971 34.755C111.957 34.7318 111.942 34.7086 111.926 34.6847C111.911 34.6608 111.895 34.637 111.879 34.6124C111.829 34.5357 111.779 34.4589 111.729 34.3821C111.664 34.2818 111.599 34.1816 111.533 34.0814C111.518 34.0574 111.502 34.0334 111.486 34.0088C111.392 33.8659 111.297 33.7258 111.194 33.5896C111.152 33.5317 111.114 33.474 111.08 33.4111C111.132 33.203 111.448 32.9932 111.608 32.8581C111.632 32.8375 111.656 32.8169 111.68 32.7956C111.883 32.6203 112.094 32.4597 112.312 32.3051C112.334 32.2898 112.334 32.2898 112.355 32.2742C113.66 31.3398 115.252 30.9927 116.831 30.9916ZM115.331 38.3129C115.312 38.3171 115.292 38.3213 115.272 38.3256C114.406 38.5155 113.625 38.9894 113.138 39.7408C112.875 40.1606 112.714 40.6569 112.69 41.1535C112.688 41.1798 112.687 41.2062 112.686 41.2333C112.665 42.0684 112.941 42.8403 113.51 43.4539C114.129 44.1024 115.032 44.4689 115.925 44.4999C117.239 44.5288 118.53 44.2584 119.557 43.3907C119.577 43.3737 119.597 43.3568 119.618 43.3393C119.971 43.0518 119.971 43.0518 120.196 42.6823C120.196 42.6623 120.196 42.6423 120.196 42.6218C120.197 42.5987 120.197 42.5757 120.197 42.5519C120.197 42.5143 120.197 42.5143 120.198 42.4759C120.198 42.4493 120.198 42.4227 120.199 42.3953C120.2 42.3073 120.2 42.2193 120.2 42.1313C120.201 42.07 120.201 42.0088 120.201 41.9475C120.202 41.819 120.202 41.6905 120.203 41.562C120.203 41.3976 120.204 41.2334 120.206 41.069C120.207 40.9424 120.208 40.8159 120.208 40.6893C120.208 40.6287 120.209 40.5682 120.209 40.5076C120.229 40.1391 120.229 40.1391 120.089 39.8132C120.038 39.7631 120.038 39.7631 119.985 39.7206C119.955 39.6888 119.925 39.6567 119.897 39.6242C119.571 39.2905 119.217 39.0285 118.802 38.8157C118.786 38.8071 118.77 38.7986 118.753 38.7898C117.995 38.3977 117.141 38.2255 116.292 38.2297C116.272 38.2297 116.252 38.2298 116.232 38.2298C115.926 38.231 115.63 38.2455 115.331 38.3129Z" fill="#6C6C6C"/>
<path d="M135.681 31.3247C135.701 31.331 135.72 31.3372 135.74 31.3436C136.351 31.5385 136.921 31.849 137.417 32.2548C137.439 32.2727 137.462 32.2907 137.485 32.3092C137.732 32.5056 137.978 32.7171 138.18 32.9597C138.23 33.0197 138.283 33.0769 138.336 33.1346C138.406 33.2118 138.474 33.2893 138.539 33.3703C138.551 33.3855 138.564 33.4007 138.576 33.4164C138.599 33.4614 138.599 33.4614 138.597 33.5106C138.564 33.582 138.518 33.6193 138.459 33.6703C138.436 33.6903 138.413 33.7102 138.389 33.7307C138.356 33.7592 138.356 33.7592 138.322 33.7882C138.29 33.8164 138.257 33.8447 138.225 33.873C138.209 33.887 138.193 33.9009 138.176 33.9152C138.093 33.9887 138.012 34.0639 137.93 34.1389C137.845 34.2171 137.759 34.2937 137.671 34.3694C137.602 34.4308 137.534 34.4936 137.465 34.5564C137.416 34.6021 137.366 34.6476 137.316 34.6931C137.288 34.7185 137.288 34.7185 137.26 34.7444C137.149 34.844 137.149 34.844 137.064 34.844C137.024 34.7972 136.988 34.7511 136.953 34.701C136.276 33.7889 135.288 33.2328 134.171 33.0663C134.155 33.0639 134.138 33.0616 134.121 33.0592C134.089 33.0546 134.056 33.0499 134.023 33.0452C132.717 32.9078 131.395 33.2304 130.365 34.056C130.098 34.2747 129.846 34.5126 129.644 34.7937C129.621 34.8235 129.599 34.8534 129.577 34.8832C129.071 35.5672 128.758 36.3519 128.594 37.1833C128.586 37.2211 128.586 37.2211 128.578 37.2597C128.499 37.6865 128.477 38.1106 128.479 38.5439C128.479 38.5811 128.479 38.5811 128.479 38.6191C128.48 38.9913 128.492 39.3541 128.562 39.7206C128.569 39.7564 128.569 39.7564 128.576 39.7929C128.767 40.792 129.145 41.7383 129.82 42.5109C129.831 42.5236 129.842 42.5363 129.853 42.5494C130.611 43.4166 131.733 43.9909 132.889 44.0694C134.131 44.1482 135.317 43.9142 136.279 43.0785C136.321 43.0408 136.363 43.0028 136.404 42.9645C136.443 42.9288 136.484 42.8946 136.526 42.8616C136.579 42.8189 136.621 42.7777 136.665 42.7261C136.68 42.709 136.694 42.6919 136.709 42.6742C136.727 42.6535 136.744 42.6328 136.763 42.6115C136.786 42.5835 136.81 42.5555 136.834 42.5275C136.86 42.4979 136.885 42.4683 136.91 42.4386C136.923 42.4243 136.935 42.4099 136.948 42.3951C137.013 42.3194 137.013 42.3194 137.064 42.2344C137.152 42.2492 137.195 42.2791 137.258 42.3402C137.275 42.3569 137.293 42.3735 137.311 42.3907C137.329 42.4086 137.347 42.4265 137.366 42.4449C137.405 42.4819 137.443 42.5189 137.482 42.5559C137.501 42.574 137.52 42.5922 137.539 42.6109C137.609 42.677 137.679 42.7418 137.75 42.8063C137.854 42.9012 137.958 42.9965 138.061 43.0922C138.16 43.1836 138.259 43.2743 138.36 43.364C138.442 43.4377 138.522 43.5125 138.599 43.5918C138.562 43.7029 138.502 43.7816 138.426 43.8683C138.414 43.8824 138.402 43.8964 138.389 43.9108C138.215 44.1113 138.038 44.3156 137.844 44.4968C137.828 44.4968 137.811 44.4968 137.794 44.4968C137.794 44.5134 137.794 44.5299 137.794 44.547C137.707 44.6288 137.611 44.6999 137.517 44.7733C137.501 44.7863 137.484 44.7992 137.467 44.8126C137.241 44.9908 137.015 45.1608 136.763 45.3012C136.743 45.3124 136.723 45.3236 136.702 45.3352C135.976 45.7419 135.195 45.968 134.373 46.0804C134.352 46.0834 134.33 46.0864 134.308 46.0895C132.513 46.3282 130.531 45.919 129.069 44.8281C128.996 44.7721 128.925 44.7144 128.854 44.6556C128.815 44.6238 128.776 44.5926 128.737 44.5614C128.378 44.2693 128.036 43.9359 127.757 43.5667C127.738 43.5422 127.718 43.5177 127.698 43.4925C126.647 42.1745 126.136 40.4602 126.097 38.7905C126.097 38.7709 126.096 38.7513 126.095 38.731C126.046 36.757 126.658 34.7884 127.958 33.2854C128.005 33.2368 128.053 33.1895 128.102 33.1431C128.138 33.1098 128.138 33.1098 128.16 33.0592C128.176 33.0592 128.193 33.0592 128.21 33.0592C128.215 33.0455 128.221 33.0317 128.226 33.0176C128.272 32.9378 128.336 32.8815 128.403 32.8204C128.425 32.8007 128.425 32.8007 128.447 32.7805C128.614 32.631 128.787 32.4906 128.965 32.3553C128.989 32.3369 128.989 32.3369 129.014 32.318C130.867 30.9262 133.5 30.6095 135.681 31.3247Z" fill="#6C6C6C"/>
<path d="M142.196 27.4033C142.951 27.4033 143.707 27.4033 144.485 27.4033C144.485 28.7056 144.485 30.008 144.485 31.3498C145.448 31.3498 146.411 31.3498 147.403 31.3498C147.403 32.0052 147.403 32.6605 147.403 33.3357C146.44 33.3357 145.477 33.3357 144.485 33.3357C144.486 34.4932 144.488 35.6508 144.491 36.8083C144.491 36.9451 144.491 37.082 144.491 37.2188C144.492 37.2597 144.492 37.2597 144.492 37.3013C144.493 37.7417 144.493 38.1821 144.494 38.6224C144.494 39.0747 144.495 39.5269 144.496 39.9792C144.497 40.258 144.497 40.5367 144.497 40.8155C144.498 41.007 144.498 41.1985 144.499 41.39C144.499 41.5003 144.499 41.6106 144.499 41.7208C144.489 42.7203 144.489 42.7203 144.887 43.617C144.899 43.6334 144.911 43.6499 144.922 43.6668C145.115 43.918 145.418 44.0317 145.721 44.0828C146.215 44.1364 146.741 43.9939 147.151 43.7175C147.223 43.659 147.29 43.5989 147.356 43.5337C147.403 43.4913 147.403 43.4913 147.453 43.4913C147.625 43.9077 147.792 44.3254 147.952 44.7465C147.973 44.802 147.995 44.8573 148.017 44.9125C148.028 44.9418 148.04 44.9711 148.051 45.0013C148.062 45.028 148.073 45.0547 148.084 45.0822C148.107 45.1503 148.107 45.1503 148.107 45.2258C147.455 45.8885 146.459 46.128 145.56 46.1368C145.525 46.1369 145.491 46.137 145.456 46.137C145.439 46.137 145.421 46.137 145.403 46.137C145.1 46.1366 144.807 46.1171 144.51 46.0553C144.49 46.0512 144.47 46.0472 144.449 46.043C143.761 45.8984 143.135 45.5256 142.738 44.9367C142.319 44.2865 142.191 43.5222 142.193 42.7611C142.193 42.7204 142.193 42.6796 142.193 42.6388C142.193 42.5273 142.193 42.4158 142.193 42.3043C142.193 42.1839 142.193 42.0635 142.193 41.9431C142.193 41.7346 142.193 41.5261 142.193 41.3177C142.193 41.0162 142.193 40.7148 142.193 40.4134C142.194 39.9243 142.194 39.4353 142.194 38.9462C142.194 38.4712 142.194 37.9962 142.194 37.5212C142.194 37.4919 142.194 37.4626 142.194 37.4324C142.195 37.2855 142.195 37.1385 142.195 36.9916C142.195 35.773 142.195 34.5543 142.196 33.3357C141.407 33.3357 140.619 33.3357 139.806 33.3357C139.806 32.6804 139.806 32.025 139.806 31.3498C140.595 31.3498 141.383 31.3498 142.196 31.3498C142.196 30.0475 142.196 28.7451 142.196 27.4033Z" fill="#6C6C6C"/>
<path d="M77.1719 25.8447C85.9652 25.8447 85.9652 25.8447 86.5041 25.939C86.5287 25.9432 86.5533 25.9474 86.5786 25.9518C87.1932 26.0619 87.7788 26.2526 88.3404 26.5234C88.3589 26.5323 88.3774 26.5413 88.3965 26.5504C88.9317 26.8116 89.393 27.1728 89.8245 27.5792C89.8429 27.5966 89.8613 27.6139 89.8803 27.6317C90.0164 27.7637 90.1355 27.9076 90.2521 28.0568C90.2627 28.0703 90.2733 28.0837 90.2843 28.0975C91.2872 29.3775 91.6096 31.0813 91.4357 32.6744C91.2761 33.921 90.8013 35.0639 89.9251 35.9751C89.9129 35.988 89.9006 36.0008 89.888 36.014C89.5073 36.4093 89.0724 36.7228 88.5887 36.9807C88.5454 37.0038 88.5023 37.0274 88.4593 37.051C87.7925 37.4027 87.0699 37.564 86.3281 37.6594C86.3644 37.7607 86.4134 37.8434 86.4735 37.9325C86.4829 37.9465 86.4922 37.9605 86.5019 37.9749C86.5319 38.0196 86.562 38.0641 86.5922 38.1087C86.6116 38.1376 86.6311 38.1666 86.6505 38.1955C86.6904 38.2547 86.7302 38.3139 86.7701 38.3731C86.8407 38.4779 86.9109 38.5831 86.981 38.6882C87.0563 38.8013 87.1318 38.9143 87.2073 39.0273C87.2673 39.1171 87.3274 39.207 87.3874 39.2969C87.4179 39.3426 87.4485 39.3883 87.479 39.434C87.643 39.6792 87.806 39.9249 87.9658 40.1728C88.0476 40.2995 88.1308 40.4252 88.2147 40.5505C88.3067 40.6879 88.3978 40.8258 88.4888 40.9639C88.504 40.987 88.5193 41.0102 88.5351 41.0341C88.5981 41.1297 88.6611 41.2254 88.7241 41.3211C88.9306 41.6346 89.1379 41.9475 89.3466 42.2595C89.3699 42.2945 89.3933 42.3294 89.4167 42.3644C89.4281 42.3814 89.4395 42.3985 89.4513 42.4161C89.4968 42.4842 89.5423 42.5523 89.5878 42.6205C89.6104 42.6542 89.6329 42.6879 89.6554 42.7216C89.8052 42.9453 89.9531 43.1702 90.0996 43.396C90.2609 43.6443 90.4239 43.8914 90.587 44.1386C90.6029 44.1627 90.6188 44.1868 90.6352 44.2116C90.8181 44.4889 91.0013 44.7659 91.186 45.0419C91.2988 45.2107 91.4113 45.3795 91.5224 45.5494C91.5399 45.5759 91.5399 45.5759 91.5578 45.603C91.6356 45.7227 91.6356 45.7227 91.6356 45.7788C91.2549 45.7847 90.8743 45.7891 90.4936 45.7918C90.3168 45.7931 90.14 45.7949 89.9633 45.7977C89.7927 45.8005 89.6221 45.802 89.4515 45.8026C89.3864 45.8031 89.3213 45.804 89.2562 45.8054C89.165 45.8072 89.0739 45.8074 88.9827 45.8073C88.9558 45.8082 88.9289 45.8091 88.9012 45.8101C88.7874 45.8085 88.7201 45.8063 88.6373 45.7236C88.5922 45.6599 88.5535 45.596 88.5165 45.5274C88.4999 45.5019 88.4833 45.4765 88.4662 45.4503C88.4531 45.429 88.44 45.4078 88.4265 45.3859C88.4114 45.3617 88.3964 45.3375 88.3809 45.3125C88.3655 45.2875 88.35 45.2625 88.3341 45.2368C88.2239 45.0593 88.1133 44.8823 87.9992 44.7073C87.8956 44.5482 87.793 44.3884 87.6911 44.2281C87.6763 44.2048 87.6614 44.1815 87.6461 44.1574C87.5716 44.0403 87.4972 43.9231 87.4229 43.8059C87.2718 43.5679 87.1194 43.331 86.9648 43.0953C86.8429 42.9096 86.7246 42.7223 86.6098 42.5321C86.5001 42.3514 86.3842 42.1748 86.2682 41.9981C86.131 41.7889 85.9971 41.5779 85.864 41.3662C85.6882 41.0873 85.5109 40.8093 85.3313 40.5329C85.2236 40.3671 85.1175 40.2002 85.012 40.0329C84.7732 39.6542 84.5318 39.277 84.2901 38.9C84.2069 38.7701 84.1239 38.6402 84.0412 38.5101C84.0254 38.4854 84.0097 38.4606 83.9935 38.4351C83.9641 38.3889 83.9348 38.3427 83.9055 38.2964C83.8921 38.2754 83.8788 38.2544 83.8651 38.2328C83.8537 38.2148 83.8423 38.1968 83.8305 38.1783C83.8163 38.1564 83.8021 38.1344 83.7875 38.1118C83.7796 38.0937 83.7718 38.0755 83.7637 38.0568C83.728 37.986 83.6957 37.9388 83.6365 37.8856C83.51 37.8512 83.3845 37.8555 83.2546 37.8576C83.2148 37.8574 83.1749 37.8571 83.1351 37.8568C83.0287 37.856 82.9223 37.8567 82.8159 37.8576C82.716 37.8582 82.616 37.8577 82.5161 37.8572C82.224 37.8565 81.932 37.8578 81.6399 37.8589C80.6609 37.8597 80.6609 37.8597 79.6622 37.8605C79.6622 40.4735 79.6622 43.0865 79.6622 45.7788C78.8404 45.7788 78.0186 45.7788 77.1719 45.7788C77.1719 39.2005 77.1719 32.6223 77.1719 25.8447ZM79.6622 28.082C79.6622 30.5872 79.6622 33.0924 79.6622 35.6735C80.9571 35.6751 80.9571 35.6751 82.2782 35.6766C82.6856 35.6773 82.6856 35.6773 83.1012 35.678C83.3468 35.6782 83.3468 35.6782 83.5923 35.6783C83.7009 35.6783 83.8094 35.6785 83.9179 35.6788C84.0571 35.6792 84.1964 35.6793 84.3356 35.6792C84.3862 35.6792 84.4368 35.6793 84.4874 35.6795C85.3798 35.6828 86.2155 35.578 87.0072 35.1456C87.0347 35.1308 87.0621 35.1161 87.0903 35.1008C87.8887 34.6542 88.469 33.8599 88.7237 32.9894C89.0053 31.9417 88.8896 30.8369 88.3703 29.884C88.2105 29.6158 88.014 29.3768 87.787 29.1629C87.767 29.1426 87.7469 29.1223 87.7263 29.1014C87.5261 28.9038 87.302 28.7479 87.0575 28.6099C87.0357 28.5975 87.0357 28.5975 87.0135 28.5848C86.5368 28.3183 86.012 28.1764 85.4728 28.1071C85.457 28.105 85.4412 28.103 85.4249 28.1008C85.2851 28.0838 85.148 28.0785 85.0072 28.0789C84.9843 28.0789 84.9613 28.0789 84.9377 28.0789C84.8611 28.0788 84.7846 28.079 84.7081 28.0791C84.6522 28.0791 84.5962 28.0791 84.5403 28.0791C84.3908 28.0791 84.2414 28.0792 84.0919 28.0794C83.9515 28.0796 83.8112 28.0796 83.6708 28.0796C83.2606 28.0797 82.8504 28.0801 82.4401 28.0804C81.065 28.0812 81.065 28.0812 79.6622 28.082Z" stroke="#6C6C6C" stroke-width="0.750637"/>
<path d="M102.88 31.2996C102.902 31.3061 102.924 31.3127 102.946 31.3195C103.781 31.5744 104.517 32.0363 105.169 32.6067C105.182 32.6181 105.195 32.6294 105.208 32.6411C105.515 32.9111 105.779 33.2101 106.024 33.5368C106.036 33.5529 106.048 33.569 106.061 33.5856C106.908 34.7239 107.364 36.1094 107.533 37.5085C107.536 37.5286 107.538 37.5487 107.541 37.5693C107.612 38.1419 107.583 38.7167 107.583 39.2933C103.74 39.2933 99.8968 39.2933 95.937 39.2933C96.0549 40.0887 96.0549 40.0887 96.264 40.8518C96.2704 40.8708 96.2767 40.8897 96.2833 40.9092C96.5352 41.6542 96.974 42.3043 97.5217 42.8628C97.5364 42.8779 97.551 42.893 97.5661 42.9085C98.2179 43.5725 99.1344 43.9743 100.037 44.1448C100.069 44.151 100.069 44.151 100.101 44.1572C100.965 44.3173 101.884 44.2396 102.729 44.0192C102.75 44.0138 102.77 44.0083 102.792 44.0028C103.736 43.7526 104.615 43.269 105.326 42.6C105.349 42.5789 105.371 42.5578 105.395 42.536C105.408 42.5238 105.421 42.5116 105.435 42.4991C105.475 42.4635 105.475 42.4635 105.546 42.4104C105.644 42.4429 105.674 42.5015 105.73 42.5832C105.752 42.6155 105.775 42.6478 105.798 42.6801C105.81 42.6975 105.822 42.7149 105.834 42.7328C105.902 42.829 105.973 42.9236 106.043 43.0184C106.057 43.0382 106.072 43.0581 106.087 43.0786C106.118 43.1196 106.148 43.1606 106.178 43.2016C106.273 43.3304 106.368 43.4593 106.463 43.5883C106.477 43.607 106.491 43.6258 106.505 43.6451C106.517 43.6616 106.53 43.678 106.542 43.695C106.579 43.7445 106.616 43.7939 106.653 43.8432C106.612 43.9517 106.529 44.02 106.445 44.0961C106.422 44.1178 106.422 44.1178 106.398 44.1398C106.238 44.2846 106.071 44.4178 105.898 44.547C105.881 44.56 105.864 44.573 105.846 44.5863C105.445 44.889 105.019 45.136 104.565 45.3514C104.547 45.3603 104.528 45.3692 104.51 45.3783C103.626 45.8052 102.648 46.0307 101.672 46.1056C101.645 46.1077 101.645 46.1077 101.617 46.11C100.244 46.2146 98.8195 46.0273 97.572 45.4269C97.5547 45.4186 97.5373 45.4103 97.5194 45.4017C96.5773 44.9491 95.7056 44.2856 95.0818 43.441C95.0632 43.4172 95.0445 43.3935 95.0254 43.369C94.2182 42.3314 93.7774 41.0619 93.5977 39.7709C93.5948 39.7508 93.592 39.7307 93.5891 39.7099C93.5278 39.2563 93.5125 38.7955 93.5222 38.3381C93.5225 38.3192 93.5228 38.3004 93.5232 38.281C93.5526 36.8322 93.9741 35.3508 94.7799 34.1401C94.7917 34.1224 94.8035 34.1047 94.8156 34.0864C95.0395 33.7533 95.2845 33.4292 95.5715 33.1478C95.6149 33.1046 95.6544 33.0592 95.6933 33.0121C95.7984 32.8908 95.9165 32.787 96.0376 32.6821C96.062 32.6606 96.0863 32.6391 96.1114 32.6169C96.5412 32.2413 97.027 31.9202 97.5435 31.6769C97.5799 31.6597 97.6163 31.6422 97.6525 31.6245C98.3791 31.2705 99.181 31.059 99.9869 30.9979C100.019 30.9952 100.052 30.9924 100.085 30.9896C101.031 30.9186 101.972 31.0264 102.88 31.2996ZM99.6599 32.9335C99.6387 32.938 99.6176 32.9424 99.5958 32.947C98.8635 33.106 98.1924 33.426 97.6352 33.93C97.601 33.9608 97.5661 33.9909 97.5312 34.0209C97.4072 34.1276 97.2991 34.2406 97.1947 34.3663C97.1774 34.3864 97.1602 34.4065 97.1424 34.4272C96.3877 35.3201 95.9842 36.4521 95.9119 37.6091C99.0247 37.6091 102.138 37.6091 105.345 37.6091C105.345 37.4101 105.341 37.2261 105.315 37.0309C105.312 37.0062 105.308 36.9814 105.305 36.9559C105.134 35.7526 104.511 34.5195 103.528 33.7767C102.989 33.3781 102.391 33.0944 101.734 32.9524C101.716 32.9486 101.699 32.9448 101.681 32.9408C101.334 32.8712 100.987 32.8485 100.635 32.8502C100.615 32.8503 100.596 32.8503 100.577 32.8504C100.266 32.8516 99.9646 32.8687 99.6599 32.9335Z" stroke="#6C6C6C" stroke-width="0.750637"/>
<path d="M116.831 30.9916C116.861 30.9916 116.89 30.9916 116.921 30.9915C117.352 30.9916 117.772 31.0031 118.199 31.0733C118.238 31.0792 118.277 31.0849 118.316 31.0907C119.568 31.2846 120.793 31.8385 121.579 32.8603C122.211 33.7477 122.455 34.7736 122.453 35.8516C122.453 35.8946 122.453 35.9375 122.453 35.9805C122.453 36.0979 122.453 36.2153 122.453 36.3327C122.452 36.4596 122.453 36.5864 122.453 36.7133C122.453 36.9329 122.452 37.1525 122.452 37.372C122.452 37.6895 122.452 38.0069 122.452 38.3244C122.452 38.8395 122.452 39.3546 122.452 39.8697C122.451 40.37 122.451 40.8702 122.451 41.3705C122.451 41.4168 122.451 41.4168 122.451 41.464C122.451 41.6188 122.451 41.7736 122.451 41.9284C122.451 43.2119 122.45 44.4953 122.45 45.7788C121.703 45.7788 120.956 45.7788 120.186 45.7788C120.177 45.2562 120.169 44.7336 120.161 44.1951C120.086 44.2781 120.011 44.361 119.934 44.4465C119.868 44.5071 119.802 44.5649 119.733 44.6225C119.71 44.6428 119.687 44.6632 119.664 44.6841C118.518 45.6949 116.969 46.1377 115.463 46.1354C115.444 46.1354 115.425 46.1354 115.406 46.1354C115.134 46.1348 114.87 46.1274 114.602 46.0804C114.582 46.0773 114.562 46.0742 114.542 46.071C113.569 45.9166 112.473 45.4803 111.784 44.7481C111.784 44.7316 111.784 44.715 111.784 44.6979C111.763 44.6892 111.763 44.6892 111.741 44.6803C111.123 44.3293 110.738 43.3336 110.552 42.6869C110.31 41.7978 110.323 40.7817 110.577 39.8966C110.582 39.8789 110.587 39.8613 110.592 39.8431C110.729 39.3723 110.942 38.9353 111.231 38.5392C111.246 38.5185 111.261 38.4978 111.276 38.4764C111.4 38.3111 111.542 38.1615 111.684 38.0113C111.699 37.994 111.715 37.9767 111.731 37.9589C112.029 37.6419 112.409 37.4092 112.79 37.2069C112.808 37.1977 112.825 37.1886 112.842 37.1791C113.266 36.9557 113.735 36.8084 114.202 36.7057C114.224 36.701 114.245 36.6963 114.267 36.6914C114.661 36.611 115.051 36.5942 115.452 36.5957C115.477 36.5958 115.502 36.5958 115.527 36.5959C117.157 36.6016 118.778 37.0758 119.949 38.2507C119.964 38.2662 119.98 38.2817 119.996 38.2976C120.012 38.3137 120.028 38.3298 120.044 38.3463C120.083 38.3854 120.122 38.4246 120.161 38.4638C120.162 38.1041 120.164 37.7444 120.165 37.3847C120.165 37.2176 120.165 37.0505 120.166 36.8835C120.167 36.7219 120.168 36.5604 120.168 36.3989C120.168 36.3376 120.168 36.2763 120.169 36.2149C120.174 35.3462 119.99 34.5914 119.376 33.9484C118.789 33.383 118.032 33.1378 117.243 33.0089C117.217 33.0046 117.217 33.0046 117.19 33.0003C116.983 32.9721 116.771 32.9776 116.562 32.9775C116.541 32.9775 116.519 32.9775 116.498 32.9774C115.18 32.9791 113.934 33.393 112.916 34.2407C112.902 34.2522 112.888 34.2637 112.874 34.2756C112.62 34.4828 112.39 34.7105 112.162 34.9445C112.073 34.915 112.063 34.8956 112.014 34.8194C111.993 34.7875 111.993 34.7875 111.971 34.755C111.957 34.7318 111.942 34.7086 111.926 34.6847C111.911 34.6608 111.895 34.637 111.879 34.6124C111.829 34.5357 111.779 34.4589 111.729 34.3821C111.664 34.2818 111.599 34.1816 111.533 34.0814C111.518 34.0574 111.502 34.0334 111.486 34.0088C111.392 33.8659 111.297 33.7258 111.194 33.5896C111.152 33.5317 111.114 33.474 111.08 33.4111C111.132 33.203 111.448 32.9932 111.608 32.8581C111.632 32.8375 111.656 32.8169 111.68 32.7956C111.883 32.6203 112.094 32.4597 112.312 32.3051C112.334 32.2898 112.334 32.2898 112.355 32.2742C113.66 31.3398 115.252 30.9927 116.831 30.9916ZM115.331 38.3129C115.312 38.3171 115.292 38.3213 115.272 38.3256C114.406 38.5155 113.625 38.9894 113.138 39.7408C112.875 40.1606 112.714 40.6569 112.69 41.1535C112.688 41.1798 112.687 41.2062 112.686 41.2333C112.665 42.0684 112.941 42.8403 113.51 43.4539C114.129 44.1024 115.032 44.4689 115.925 44.4999C117.239 44.5288 118.53 44.2584 119.557 43.3907C119.577 43.3737 119.597 43.3568 119.618 43.3393C119.971 43.0518 119.971 43.0518 120.196 42.6823C120.196 42.6623 120.196 42.6423 120.196 42.6218C120.197 42.5987 120.197 42.5757 120.197 42.5519C120.197 42.5143 120.197 42.5143 120.198 42.4759C120.198 42.4493 120.198 42.4227 120.199 42.3953C120.2 42.3073 120.2 42.2193 120.2 42.1313C120.201 42.07 120.201 42.0088 120.201 41.9475C120.202 41.819 120.202 41.6905 120.203 41.562C120.203 41.3976 120.204 41.2334 120.206 41.069C120.207 40.9424 120.208 40.8159 120.208 40.6893C120.208 40.6287 120.209 40.5682 120.209 40.5076C120.229 40.1391 120.229 40.1391 120.089 39.8132C120.038 39.7631 120.038 39.7631 119.985 39.7206C119.955 39.6888 119.925 39.6567 119.897 39.6242C119.571 39.2905 119.217 39.0285 118.802 38.8157C118.786 38.8071 118.77 38.7986 118.753 38.7898C117.995 38.3977 117.141 38.2255 116.292 38.2297C116.272 38.2297 116.252 38.2298 116.232 38.2298C115.926 38.231 115.63 38.2455 115.331 38.3129Z" stroke="#6C6C6C" stroke-width="0.750637"/>
<path d="M135.681 31.3247C135.701 31.331 135.72 31.3372 135.74 31.3436C136.351 31.5385 136.921 31.849 137.417 32.2548C137.439 32.2727 137.462 32.2907 137.485 32.3092C137.732 32.5056 137.978 32.7171 138.18 32.9597C138.23 33.0197 138.283 33.0769 138.336 33.1346C138.406 33.2118 138.474 33.2893 138.539 33.3703C138.551 33.3855 138.564 33.4007 138.576 33.4164C138.599 33.4614 138.599 33.4614 138.597 33.5106C138.564 33.582 138.518 33.6193 138.459 33.6703C138.436 33.6903 138.413 33.7102 138.389 33.7307C138.356 33.7592 138.356 33.7592 138.322 33.7882C138.29 33.8164 138.257 33.8447 138.225 33.873C138.209 33.887 138.193 33.9009 138.176 33.9152C138.093 33.9887 138.012 34.0639 137.93 34.1389C137.845 34.2171 137.759 34.2937 137.671 34.3694C137.602 34.4308 137.534 34.4936 137.465 34.5564C137.416 34.6021 137.366 34.6476 137.316 34.6931C137.288 34.7185 137.288 34.7185 137.26 34.7444C137.149 34.844 137.149 34.844 137.064 34.844C137.024 34.7972 136.988 34.7511 136.953 34.701C136.276 33.7889 135.288 33.2328 134.171 33.0663C134.155 33.0639 134.138 33.0616 134.121 33.0592C134.089 33.0546 134.056 33.0499 134.023 33.0452C132.717 32.9078 131.395 33.2304 130.365 34.056C130.098 34.2747 129.846 34.5126 129.644 34.7937C129.621 34.8235 129.599 34.8534 129.577 34.8832C129.071 35.5672 128.758 36.3519 128.594 37.1833C128.586 37.2211 128.586 37.2211 128.578 37.2597C128.499 37.6865 128.477 38.1106 128.479 38.5439C128.479 38.5811 128.479 38.5811 128.479 38.6191C128.48 38.9913 128.492 39.3541 128.562 39.7206C128.569 39.7564 128.569 39.7564 128.576 39.7929C128.767 40.792 129.145 41.7383 129.82 42.5109C129.831 42.5236 129.842 42.5363 129.853 42.5494C130.611 43.4166 131.733 43.9909 132.889 44.0694C134.131 44.1482 135.317 43.9142 136.279 43.0785C136.321 43.0408 136.363 43.0028 136.404 42.9645C136.443 42.9288 136.484 42.8946 136.526 42.8616C136.579 42.8189 136.621 42.7777 136.665 42.7261C136.68 42.709 136.694 42.6919 136.709 42.6742C136.727 42.6535 136.744 42.6328 136.763 42.6115C136.786 42.5835 136.81 42.5555 136.834 42.5275C136.86 42.4979 136.885 42.4683 136.91 42.4386C136.923 42.4243 136.935 42.4099 136.948 42.3951C137.013 42.3194 137.013 42.3194 137.064 42.2344C137.152 42.2492 137.195 42.2791 137.258 42.3402C137.275 42.3569 137.293 42.3735 137.311 42.3907C137.329 42.4086 137.347 42.4265 137.366 42.4449C137.405 42.4819 137.443 42.5189 137.482 42.5559C137.501 42.574 137.52 42.5922 137.539 42.6109C137.609 42.677 137.679 42.7418 137.75 42.8063C137.854 42.9012 137.958 42.9965 138.061 43.0922C138.16 43.1836 138.259 43.2743 138.36 43.364C138.442 43.4377 138.522 43.5125 138.599 43.5918C138.562 43.7029 138.502 43.7816 138.426 43.8683C138.414 43.8824 138.402 43.8964 138.389 43.9108C138.215 44.1113 138.038 44.3156 137.844 44.4968C137.828 44.4968 137.811 44.4968 137.794 44.4968C137.794 44.5134 137.794 44.5299 137.794 44.547C137.707 44.6288 137.611 44.6999 137.517 44.7733C137.501 44.7863 137.484 44.7992 137.467 44.8126C137.241 44.9908 137.015 45.1608 136.763 45.3012C136.743 45.3124 136.723 45.3236 136.702 45.3352C135.976 45.7419 135.195 45.968 134.373 46.0804C134.352 46.0834 134.33 46.0864 134.308 46.0895C132.513 46.3282 130.531 45.919 129.069 44.8281C128.996 44.7721 128.925 44.7144 128.854 44.6556C128.815 44.6238 128.776 44.5926 128.737 44.5614C128.378 44.2693 128.036 43.9359 127.757 43.5667C127.738 43.5422 127.718 43.5177 127.698 43.4925C126.647 42.1745 126.136 40.4602 126.097 38.7905C126.097 38.7709 126.096 38.7513 126.095 38.731C126.046 36.757 126.658 34.7884 127.958 33.2854C128.005 33.2368 128.053 33.1895 128.102 33.1431C128.138 33.1098 128.138 33.1098 128.16 33.0592C128.176 33.0592 128.193 33.0592 128.21 33.0592C128.215 33.0455 128.221 33.0317 128.226 33.0176C128.272 32.9378 128.336 32.8815 128.403 32.8204C128.425 32.8007 128.425 32.8007 128.447 32.7805C128.614 32.631 128.787 32.4906 128.965 32.3553C128.989 32.3369 128.989 32.3369 129.014 32.318C130.867 30.9262 133.5 30.6095 135.681 31.3247Z" stroke="#6C6C6C" stroke-width="0.750637"/>
<path d="M142.196 27.4033C142.951 27.4033 143.707 27.4033 144.485 27.4033C144.485 28.7056 144.485 30.008 144.485 31.3498C145.448 31.3498 146.411 31.3498 147.403 31.3498C147.403 32.0052 147.403 32.6605 147.403 33.3357C146.44 33.3357 145.477 33.3357 144.485 33.3357C144.486 34.4932 144.488 35.6508 144.491 36.8083C144.491 36.9451 144.491 37.082 144.491 37.2188C144.492 37.2597 144.492 37.2597 144.492 37.3013C144.493 37.7417 144.493 38.1821 144.494 38.6224C144.494 39.0747 144.495 39.5269 144.496 39.9792C144.497 40.258 144.497 40.5367 144.497 40.8155C144.498 41.007 144.498 41.1985 144.499 41.39C144.499 41.5003 144.499 41.6106 144.499 41.7208C144.489 42.7203 144.489 42.7203 144.887 43.617C144.899 43.6334 144.911 43.6499 144.922 43.6668C145.115 43.918 145.418 44.0317 145.721 44.0828C146.215 44.1364 146.741 43.9939 147.151 43.7175C147.223 43.659 147.29 43.5989 147.356 43.5337C147.403 43.4913 147.403 43.4913 147.453 43.4913C147.625 43.9077 147.792 44.3254 147.952 44.7465C147.973 44.802 147.995 44.8573 148.017 44.9125C148.028 44.9418 148.04 44.9711 148.051 45.0013C148.062 45.028 148.073 45.0547 148.084 45.0822C148.107 45.1503 148.107 45.1503 148.107 45.2258C147.455 45.8885 146.459 46.128 145.56 46.1368C145.525 46.1369 145.491 46.137 145.456 46.137C145.439 46.137 145.421 46.137 145.403 46.137C145.1 46.1366 144.807 46.1171 144.51 46.0553C144.49 46.0512 144.47 46.0472 144.449 46.043C143.761 45.8984 143.135 45.5256 142.738 44.9367C142.319 44.2865 142.191 43.5222 142.193 42.7611C142.193 42.7204 142.193 42.6796 142.193 42.6388C142.193 42.5273 142.193 42.4158 142.193 42.3043C142.193 42.1839 142.193 42.0635 142.193 41.9431C142.193 41.7346 142.193 41.5261 142.193 41.3177C142.193 41.0162 142.193 40.7148 142.193 40.4134C142.194 39.9243 142.194 39.4353 142.194 38.9462C142.194 38.4712 142.194 37.9962 142.194 37.5212C142.194 37.4919 142.194 37.4626 142.194 37.4324C142.195 37.2855 142.195 37.1385 142.195 36.9916C142.195 35.773 142.195 34.5543 142.196 33.3357C141.407 33.3357 140.619 33.3357 139.806 33.3357C139.806 32.6804 139.806 32.025 139.806 31.3498C140.595 31.3498 141.383 31.3498 142.196 31.3498C142.196 30.0475 142.196 28.7451 142.196 27.4033Z" stroke="#6C6C6C" stroke-width="0.750637"/>
</svg>
